<svg width="13" height="10" viewBox="0 0 13 10" fill="none" xmlns="http://www.w3.org/2000/svg">
<path d="M1.66669 4.00002C1.11335 4.00002 0.666687 4.44668 0.666687 5.00002C0.666687 5.55335 1.11335 6.00002 1.66669 6.00002C2.22002 6.00002 2.66669 5.55335 2.66669 5.00002C2.66669 4.44668 2.22002 4.00002 1.66669 4.00002ZM1.66669 1.52588e-05C1.11335 1.52588e-05 0.666687 0.446682 0.666687 1.00002C0.666687 1.55335 1.11335 2.00002 1.66669 2.00002C2.22002 2.00002 2.66669 1.55335 2.66669 1.00002C2.66669 0.446682 2.22002 1.52588e-05 1.66669 1.52588e-05ZM1.66669 8.00002C1.11335 8.00002 0.666687 8.45335 0.666687 9.00002C0.666687 9.54668 1.12002 10 1.66669 10C2.21335 10 2.66669 9.54668 2.66669 9.00002C2.66669 8.45335 2.22002 8.00002 1.66669 8.00002ZM3.66669 9.66668H13V8.33335H3.66669V9.66668ZM3.66669 5.66668H13V4.33335H3.66669V5.66668ZM3.66669 0.333349V1.66668H13V0.333349H3.66669Z" fill="white" fill-opacity="0.9"/>
</svg>
