<svg width="18.68" height="19.2" viewBox="0 0 20 21" fill="none" xmlns="http://www.w3.org/2000/svg">
<path d="M17.14 11.44C17.18 11.14 17.2 10.83 17.2 10.5C17.2 10.18 17.18 9.86002 17.13 9.56002L19.16 7.98002C19.34 7.84002 19.39 7.57002 19.28 7.37002L17.36 4.05002C17.24 3.83002 16.99 3.76002 16.77 3.83002L14.38 4.79002C13.88 4.41002 13.35 4.09002 12.76 3.85002L12.4 1.31002C12.36 1.07002 12.16 0.900024 11.92 0.900024H8.07999C7.83999 0.900024 7.64999 1.07002 7.60999 1.31002L7.24999 3.85002C6.65999 4.09002 6.11999 4.42002 5.62999 4.79002L3.23999 3.83002C3.01999 3.75002 2.76999 3.83002 2.64999 4.05002L0.739988 7.37002C0.619988 7.58002 0.659988 7.84002 0.859988 7.98002L2.88999 9.56002C2.83999 9.86002 2.79999 10.19 2.79999 10.5C2.79999 10.81 2.81999 11.14 2.86999 11.44L0.839988 13.02C0.659988 13.16 0.609988 13.43 0.719988 13.63L2.63999 16.95C2.75999 17.17 3.00999 17.24 3.22999 17.17L5.61999 16.21C6.11999 16.59 6.64999 16.91 7.23999 17.15L7.59999 19.69C7.64999 19.93 7.83999 20.1 8.07999 20.1H11.92C12.16 20.1 12.36 19.93 12.39 19.69L12.75 17.15C13.34 16.91 13.88 16.59 14.37 16.21L16.76 17.17C16.98 17.25 17.23 17.17 17.35 16.95L19.27 13.63C19.39 13.41 19.34 13.16 19.15 13.02L17.14 11.44ZM9.99999 14.1C8.01999 14.1 6.39999 12.48 6.39999 10.5C6.39999 8.52002 8.01999 6.90002 9.99999 6.90002C11.98 6.90002 13.6 8.52002 13.6 10.5C13.6 12.48 11.98 14.1 9.99999 14.1Z" fill="white" fill-opacity="0.9"/>
</svg>
