<svg width="13" height="13" viewBox="0 0 13 13" fill="none" xmlns="http://www.w3.org/2000/svg">
<path d="M9.04167 6.79333L3.08167 0.833333L2.14167 1.77333L3.72833 3.36L0.295 6.79333C-0.0983334 7.18667 -0.0983334 7.82 0.295 8.20667L3.96167 11.8733C4.155 12.0667 4.415 12.1667 4.66833 12.1667C4.92167 12.1667 5.18167 12.0667 5.375 11.8733L9.04167 8.20667C9.435 7.82 9.435 7.18667 9.04167 6.79333ZM1.475 7.5L4.66833 4.30667L7.86167 7.5H1.475ZM10.6683 8.5C10.6683 8.5 9.335 9.94667 9.335 10.8333C9.335 11.5667 9.935 12.1667 10.6683 12.1667C11.4017 12.1667 12.0017 11.5667 12.0017 10.8333C12.0017 9.94667 10.6683 8.5 10.6683 8.5Z" fill="#333333"/>
</svg>
