<svg width="16" height="16" viewBox="0 0 16 16" fill="none" xmlns="http://www.w3.org/2000/svg">
<path d="M2.66663 7C2.11329 7 1.66663 7.44667 1.66663 8C1.66663 8.55333 2.11329 9 2.66663 9C3.21996 9 3.66663 8.55333 3.66663 8C3.66663 7.44667 3.21996 7 2.66663 7ZM2.66663 3C2.11329 3 1.66663 3.44667 1.66663 4C1.66663 4.55333 2.11329 5 2.66663 5C3.21996 5 3.66663 4.55333 3.66663 4C3.66663 3.44667 3.21996 3 2.66663 3ZM2.66663 11C2.11329 11 1.66663 11.4533 1.66663 12C1.66663 12.5467 2.11996 13 2.66663 13C3.21329 13 3.66663 12.5467 3.66663 12C3.66663 11.4533 3.21996 11 2.66663 11ZM4.66663 12.6667H14V11.3333H4.66663V12.6667ZM4.66663 8.66667H14V7.33333H4.66663V8.66667ZM4.66663 3.33333V4.66667H14V3.33333H4.66663Z" fill="#585757"/>
</svg>
