<svg width="20" height="20" viewBox="0 0 20 20" fill="none" xmlns="http://www.w3.org/2000/svg">
<path fill-rule="evenodd" clip-rule="evenodd" d="M10 17.5V17.5C5.8575 17.5 2.5 14.1425 2.5 10V10C2.5 5.8575 5.8575 2.5 10 2.5V2.5C14.1425 2.5 17.5 5.8575 17.5 10V10C17.5 14.1425 14.1425 17.5 10 17.5Z" stroke="#585757" stroke-width="1.5" stroke-linecap="round" stroke-linejoin="round"/>
<path d="M9.99967 11.0415V10.8332C9.99967 10.1523 10.4205 9.78318 10.8422 9.49984C11.2538 9.22234 11.6663 8.86068 11.6663 8.19401C11.6663 7.27318 10.9205 6.52734 9.99967 6.52734C9.07884 6.52734 8.33301 7.27318 8.33301 8.19401" stroke="#585757" stroke-width="1.5" stroke-linecap="round" stroke-linejoin="round"/>
<path d="M9.99884 13.3333C9.88384 13.3333 9.79051 13.4267 9.79134 13.5417C9.79134 13.6567 9.88468 13.75 9.99968 13.75C10.1147 13.75 10.208 13.6567 10.208 13.5417C10.208 13.4267 10.1147 13.3333 9.99884 13.3333" stroke="#585757" stroke-width="1.5" stroke-linecap="round" stroke-linejoin="round"/>
</svg>
