<svg width="16" height="12" viewBox="0 0 16 12" fill="none" xmlns="http://www.w3.org/2000/svg">
<path d="M8.5468 3.82735H0.776982C0.349642 3.82735 0 4.17699 0 4.60433C0 5.03167 0.349642 5.38131 0.776982 5.38131H8.5468C8.97414 5.38131 9.32378 5.03167 9.32378 4.60433C9.32378 4.17699 8.97414 3.82735 8.5468 3.82735ZM8.5468 0.719421H0.776982C0.349642 0.719421 0 1.06906 0 1.4964C0 1.92374 0.349642 2.27339 0.776982 2.27339H8.5468C8.97414 2.27339 9.32378 1.92374 9.32378 1.4964C9.32378 1.06906 8.97414 0.719421 8.5468 0.719421ZM0.776982 8.48924H5.43887C5.86621 8.48924 6.21586 8.1396 6.21586 7.71226C6.21586 7.28492 5.86621 6.93528 5.43887 6.93528H0.776982C0.349642 6.93528 0 7.28492 0 7.71226C0 8.1396 0.349642 8.48924 0.776982 8.48924ZM15.7028 5.54448L15.7727 5.61441C16.0758 5.91743 16.0758 6.40693 15.7727 6.70995L11.4372 11.0533C11.1342 11.3563 10.6447 11.3563 10.3416 11.0533L7.94076 8.65241C7.63773 8.34938 7.63773 7.85989 7.94076 7.55686L8.01068 7.48693C8.31371 7.18391 8.80321 7.18391 9.10623 7.48693L10.8933 9.27399L14.6073 5.55225C14.9025 5.24146 15.3998 5.24146 15.7028 5.54448Z" fill="grey" fill-opacity="0.9"/>
</svg>
