<svg width="16" height="16" viewBox="0 0 16 16" fill="none" xmlns="http://www.w3.org/2000/svg">
<path d="M13.3333 2.66634V10.6663H5.33325V2.66634H13.3333ZM13.3333 1.33301H5.33325C4.59992 1.33301 3.99992 1.93301 3.99992 2.66634V10.6663C3.99992 11.3997 4.59992 11.9997 5.33325 11.9997H13.3333C14.0666 11.9997 14.6666 11.3997 14.6666 10.6663V2.66634C14.6666 1.93301 14.0666 1.33301 13.3333 1.33301ZM8.31325 9.33301L5.99992 6.99967L6.93325 6.05967L8.31325 7.44634L11.7333 3.99967L12.6666 4.93967L8.31325 9.33301ZM2.66659 3.99967H1.33325V13.333C1.33325 14.0663 1.93325 14.6663 2.66659 14.6663H11.9999V13.333H2.66659V3.99967Z" fill="#585757"/>
</svg>
